<svg id="Layer_1" data-name="Layer 1" xmlns="http://www.w3.org/2000/svg" viewBox="0 0 95.58 67.88"><defs><style>.cls-1,.cls-3{fill:#7c7c7c;}.cls-2{fill:#fff;}.cls-3{font-size:10px;font-family:OpenSans-Bold, Open Sans;font-weight:700;letter-spacing:0.42em;}</style></defs><title>Main logo - grayscale</title><path class="cls-1" d="M27.56,38.56h15V30.9h-15V19.49H43.7V11.8H18.33V41.57A67.82,67.82,0,0,0,27.56,43Z"/><path class="cls-1" d="M67.14,26.93,58.08,11.8H47.73l13.47,21A36.93,36.93,0,0,0,67.14,26.93Z"/><path class="cls-2" d="M85.1,1.1,67,22.19l5.09.91a22.39,22.39,0,0,1-4,6.86,36.93,36.93,0,0,1-5.95,5.88,52.63,52.63,0,0,1-14.49,8A44,44,0,0,1,28.54,46a67.81,67.81,0,0,1-9.23-1.47,81.9,81.9,0,0,1-17.62-6.2A51.78,51.78,0,0,0,19.3,49a67.76,67.76,0,0,0,9.23,2.74,67.33,67.33,0,0,0,23.21,1.1,55.77,55.77,0,0,0,9.25-2c.82-.26,1.61-.54,2.39-.83a41.6,41.6,0,0,0,7.25-3.58,43.55,43.55,0,0,0,6.62-5.06A47.37,47.37,0,0,0,88.79,24.85l5.09.11Z"/><text class="cls-3" transform="translate(18.15 65.65)">TRADING</text><path class="cls-1" d="M18.33,48.64v7.42h9.23V51.55A67.69,67.69,0,0,1,19.33,49Z"/><path class="cls-1" d="M71.27,46.06l6.15,10H88.14L77.9,40.79l-.64.62A43.76,43.76,0,0,1,71.27,46.06Z"/></svg>